<svg width="259" height="32" fill="none" xmlns="http://www.w3.org/2000/svg"><path d="M3.016 28.969h14.043V31H.594V2.562h2.422V28.97zm18.236-8.848c0-2.031.39-3.86 1.171-5.488.795-1.628 1.908-2.89 3.34-3.79 1.446-.91 3.08-1.366 4.903-1.366 2.812 0 5.09.99 6.836 2.968 1.744 1.966 2.617 4.577 2.617 7.832v.489c0 2.044-.397 3.886-1.192 5.527-.78 1.628-1.888 2.884-3.32 3.77-1.432.885-3.066 1.328-4.902 1.328-2.8 0-5.078-.983-6.836-2.95-1.745-1.979-2.617-4.596-2.617-7.851v-.469zm2.343.645c0 2.526.651 4.603 1.953 6.23 1.316 1.615 3.034 2.422 5.157 2.422 2.11 0 3.815-.807 5.117-2.422 1.315-1.627 1.972-3.77 1.972-6.426v-.449c0-1.614-.299-3.092-.898-4.433-.599-1.342-1.439-2.377-2.52-3.106-1.08-.742-2.317-1.113-3.71-1.113-2.084 0-3.783.82-5.098 2.46-1.315 1.628-1.973 3.764-1.973 6.407v.43zm27.826 5.37l.352 1.817.468-1.914L57.32 9.867h1.993l5.02 16.035.546 2.227.45-2.05 4.335-16.212h2.422L65.933 31H63.94l-5.43-16.758-.254-1.152-.254 1.172L52.671 31H50.68L44.546 9.867h2.402l4.473 16.27zm32.298-2.812l.88 4.414 1.074-4.218 6.171-20.957h2.169l6.093 20.957 1.055 4.257.937-4.453 5.137-20.762h2.461L102.411 31h-2.305L93.661 8.754l-.723-2.813-.703 2.813L85.634 31h-2.305L76.063 2.562h2.461l5.195 20.762zM127.855 31c-.234-.664-.384-1.647-.449-2.95-.821 1.069-1.869 1.895-3.145 2.481a9.624 9.624 0 01-4.023.86c-2.032 0-3.679-.567-4.942-1.7-1.25-1.132-1.875-2.565-1.875-4.296 0-2.058.853-3.685 2.559-4.883 1.719-1.198 4.108-1.797 7.168-1.797h4.238v-2.402c0-1.51-.469-2.696-1.406-3.555-.925-.873-2.279-1.309-4.063-1.309-1.627 0-2.975.417-4.043 1.25-1.067.834-1.601 1.836-1.601 3.008l-2.344-.02c0-1.68.781-3.131 2.344-4.355 1.562-1.237 3.483-1.855 5.762-1.855 2.356 0 4.212.592 5.566 1.777 1.367 1.172 2.07 2.812 2.109 4.922v10c0 2.044.215 3.574.645 4.59V31h-2.5zm-7.344-1.68c1.563 0 2.956-.377 4.18-1.133 1.237-.755 2.135-1.764 2.695-3.027v-4.648h-4.18c-2.33.026-4.153.455-5.468 1.289-1.315.82-1.973 1.953-1.973 3.398 0 1.185.436 2.168 1.309 2.95.885.78 2.031 1.171 3.437 1.171zm29.506-3.691c0-1.159-.469-2.09-1.407-2.793-.924-.703-2.324-1.25-4.199-1.64-1.875-.404-3.333-.86-4.375-1.368-1.028-.52-1.797-1.152-2.305-1.894-.494-.743-.742-1.641-.742-2.696 0-1.666.697-3.04 2.09-4.12 1.393-1.095 3.177-1.641 5.352-1.641 2.356 0 4.244.585 5.664 1.757 1.432 1.16 2.148 2.676 2.148 4.551h-2.344c0-1.237-.52-2.265-1.562-3.086-1.029-.82-2.331-1.23-3.906-1.23-1.537 0-2.774.345-3.711 1.035-.925.677-1.387 1.562-1.387 2.656 0 1.055.384 1.875 1.152 2.461.782.573 2.194 1.1 4.239 1.582 2.057.482 3.593.996 4.609 1.543 1.029.547 1.79 1.205 2.285 1.973.495.768.742 1.699.742 2.793 0 1.784-.722 3.21-2.168 4.277-1.432 1.068-3.307 1.602-5.625 1.602-2.461 0-4.459-.593-5.996-1.778-1.523-1.198-2.285-2.708-2.285-4.531h2.344c.091 1.367.664 2.435 1.719 3.203 1.067.755 2.474 1.133 4.218 1.133 1.628 0 2.943-.358 3.946-1.074 1.002-.716 1.504-1.621 1.504-2.715zm12.65-21.172v5.41h4.375v1.914h-4.375v14.082c0 1.172.208 2.045.625 2.617.429.573 1.139.86 2.129.86.39 0 1.022-.065 1.894-.195l.098 1.914c-.612.22-1.446.332-2.5.332-1.602 0-2.767-.463-3.496-1.387-.73-.938-1.094-2.311-1.094-4.121V11.78h-3.887V9.867h3.887v-5.41h2.344zm18.802 26.934c-1.797 0-3.425-.443-4.883-1.328-1.445-.886-2.571-2.116-3.379-3.692-.807-1.588-1.211-3.366-1.211-5.332v-.84c0-2.031.391-3.86 1.172-5.488.794-1.628 1.895-2.904 3.301-3.828 1.406-.938 2.93-1.406 4.57-1.406 2.565 0 4.597.878 6.094 2.636 1.51 1.745 2.266 4.134 2.266 7.168v1.309H174.32v.45c0 2.395.683 4.394 2.05 5.995 1.381 1.589 3.112 2.383 5.196 2.383 1.25 0 2.35-.228 3.3-.684.964-.455 1.836-1.185 2.618-2.187l1.464 1.113c-1.718 2.487-4.212 3.73-7.48 3.73zm-.43-19.922c-1.758 0-3.242.644-4.453 1.933-1.198 1.29-1.927 3.021-2.187 5.196h12.675v-.254c-.065-2.032-.644-3.685-1.738-4.961-1.094-1.276-2.526-1.914-4.297-1.914zm17.279 17.5h14.043V31h-16.465V2.562h2.422V28.97zM220.459 31h-2.343V9.867h2.343V31zm-2.754-27.246c0-.443.144-.814.43-1.113.287-.313.677-.47 1.172-.47.495 0 .885.157 1.172.47.299.3.449.67.449 1.113 0 .443-.15.814-.449 1.113-.287.3-.677.45-1.172.45-.495 0-.885-.15-1.172-.45a1.55 1.55 0 01-.43-1.113zM229.906 31V11.781h-3.496V9.867h3.496V7.31c0-2.162.547-3.822 1.641-4.98 1.107-1.16 2.643-1.74 4.609-1.74.886 0 1.712.112 2.481.333l-.176 1.953a9.117 9.117 0 00-2.129-.234c-1.289 0-2.292.403-3.008 1.21-.716.795-1.074 1.928-1.074 3.399v2.617h5.039v1.914h-5.039V31h-2.344zm20.678.39c-1.797 0-3.425-.442-4.883-1.328-1.446-.885-2.572-2.115-3.379-3.69-.807-1.59-1.211-3.367-1.211-5.333v-.84c0-2.031.391-3.86 1.172-5.488.794-1.628 1.894-2.904 3.301-3.828 1.406-.938 2.929-1.406 4.57-1.406 2.565 0 4.596.878 6.094 2.636 1.51 1.745 2.265 4.134 2.265 7.168v1.309h-15.078v.45c0 2.395.684 4.394 2.051 5.995 1.38 1.589 3.112 2.383 5.195 2.383 1.25 0 2.351-.228 3.301-.684.964-.455 1.836-1.185 2.617-2.187l1.465 1.113c-1.719 2.487-4.212 3.73-7.48 3.73zm-.43-19.921c-1.758 0-3.242.644-4.453 1.933-1.198 1.29-1.927 3.021-2.188 5.196h12.676v-.254c-.065-2.032-.644-3.685-1.738-4.961-1.094-1.276-2.526-1.914-4.297-1.914z" fill="#000"/></svg>